<?xml version="1.0" encoding="UTF-8"?><svg xmlns="http://www.w3.org/2000/svg" width="42" height="58" viewBox="0 0 42 58"><defs><clipPath id="card-back-panel"><rect x="6" y="6" width="28" height="44" rx="1.5"/></clipPath></defs><rect x="2" y="2" width="38" height="54" rx="3" fill="#0f380f"/><rect x="1" y="1" width="38" height="54" rx="3" fill="#306230"/><rect x="2" y="2" width="36" height="52" rx="2" fill="#c6cfa1"/><rect x="4" y="4" width="32" height="48" rx="1.5" fill="#dce6b3" stroke="#8fa319" stroke-width="1"/><rect x="4.5" y="4.5" width="31" height="1" rx="0.5" fill="#eff7c8"/><rect x="6" y="6" width="28" height="44" rx="1.5" fill="#c6cfa1" stroke="#8fa319" stroke-width="1"/><g clip-path="url(#card-back-panel)"><path d="M -16 47 L 2 9" stroke="#306230" stroke-width="2"/><path d="M -10 47 L 8 9" stroke="#306230" stroke-width="2"/><path d="M -4 47 L 14 9" stroke="#306230" stroke-width="2"/><path d="M 2 47 L 20 9" stroke="#306230" stroke-width="2"/><path d="M 8 47 L 26 9" stroke="#306230" stroke-width="2"/><path d="M 14 47 L 32 9" stroke="#306230" stroke-width="2"/><path d="M 20 47 L 38 9" stroke="#306230" stroke-width="2"/><path d="M 26 47 L 44 9" stroke="#306230" stroke-width="2"/><path d="M 32 47 L 50 9" stroke="#306230" stroke-width="2"/><path d="M 38 47 L 56 9" stroke="#306230" stroke-width="2"/></g></svg>